{
  "accessors": [
    {
      "bufferView": 0,
      "byteOffset": 0,
      "componentType": 5123,
      "count": 408,
      "max": [
        407.0
      ],
      "min": [
        0.0
      ],
      "name": "buffer-0-accessor-indices-buffer-0-mesh-0",
      "type": "SCALAR"
    },
    {
      "bufferView": 2,
      "byteOffset": 0,
      "componentType": 5126,
      "count": 408,
      "max": [
        1.0,
        1.0,
        1.3990440368652344
      ],
      "min": [
        -1.0,
        -1.0,
        -2.177485942840576
      ],
      "name": "buffer-0-accessor-position-buffer-0-mesh-0",
      "type": "VEC3"
    },
    {
      "bufferView": 2,
      "byteOffset": 4896,
      "componentType": 5126,
      "count": 408,
      "max": [
        0.9238796830177307,
        0.9238796830177307,
        1.0
      ],
      "min": [
        -0.9238796830177307,
        -0.9238796830177307,
        -1.0
      ],
      "name": "buffer-0-accessor-normal-buffer-0-mesh-0",
      "type": "VEC3"
    },
    {
      "bufferView": 1,
      "byteOffset": 0,
      "componentType": 5126,
      "count": 408,
      "max": [
        0.65625,
        0.0
      ],
      "min": [
        0.0,
        -1.0
      ],
      "name": "buffer-0-accessor-texcoord-buffer-0-mesh-0",
      "type": "VEC2"
    },
    {
      "bufferView": 3,
      "byteOffset": 0,
      "componentType": 5126,
      "count": 0,
      "max": [
        0.0,
        0.0,
        0.0,
        0.0
      ],
      "min": [
        0.0,
        0.0,
        0.0,
        0.0
      ],
      "name": "buffer-0-accessor-color-buffer-0-mesh-0",
      "type": "VEC4"
    },
    {
      "bufferView": 0,
      "byteOffset": 816,
      "componentType": 5123,
      "count": 216,
      "max": [
        215.0
      ],
      "min": [
        0.0
      ],
      "name": "buffer-0-accessor-indices-buffer-0-mesh-0",
      "type": "SCALAR"
    },
    {
      "bufferView": 2,
      "byteOffset": 9792,
      "componentType": 5126,
      "count": 216,
      "max": [
        0.9112979769706726,
        0.9112979769706726,
        3.523298978805542
      ],
      "min": [
        -0.9112979769706726,
        -0.9112979769706726,
        0.0
      ],
      "name": "buffer-0-accessor-position-buffer-0-mesh-0",
      "type": "VEC3"
    },
    {
      "bufferView": 2,
      "byteOffset": 12384,
      "componentType": 5126,
      "count": 216,
      "max": [
        0.9236615896224976,
        0.9236615896224976,
        0.8693816661834717
      ],
      "min": [
        -0.9236615896224976,
        -0.9236615896224976,
        0.0
      ],
      "name": "buffer-0-accessor-normal-buffer-0-mesh-0",
      "type": "VEC3"
    },
    {
      "bufferView": 1,
      "byteOffset": 3264,
      "componentType": 5126,
      "count": 216,
      "max": [
        0.65625,
        0.0
      ],
      "min": [
        0.0,
        -1.0
      ],
      "name": "buffer-0-accessor-texcoord-buffer-0-mesh-0",
      "type": "VEC2"
    },
    {
      "bufferView": 3,
      "byteOffset": 0,
      "componentType": 5126,
      "count": 0,
      "max": [
        0.0,
        0.0,
        0.0,
        0.0
      ],
      "min": [
        0.0,
        0.0,
        0.0,
        0.0
      ],
      "name": "buffer-0-accessor-color-buffer-0-mesh-0",
      "type": "VEC4"
    }
  ],
  "asset": {
    "generator": "Obj2GltfConverter",
    "version": "2.0"
  },
  "bufferViews": [
    {
      "buffer": 0,
      "byteLength": 1248,
      "byteOffset": 0,
      "byteStride": 0,
      "name": "buffer-0-bufferview-ushort",
      "target": 34963
    },
    {
      "buffer": 0,
      "byteLength": 4992,
      "byteOffset": 1248,
      "byteStride": 8,
      "name": "buffer-0-bufferview-vec2",
      "target": 34962
    },
    {
      "buffer": 0,
      "byteLength": 14976,
      "byteOffset": 6240,
      "byteStride": 12,
      "name": "buffer-0-bufferview-vec3",
      "target": 34962
    },
    {
      "buffer": 0,
      "byteLength": 0,
      "byteOffset": 21216,
      "byteStride": 16,
      "name": "buffer-0-bufferview-vec4",
      "target": 34962
    }
  ],
  "buffers": [
    {
      "byteLength": 21216,
      "name": "buffer-0",
      "uri": "bullet.bin"
    }
  ],
  "materials": [
    {
      "alphaMode": "OPAQUE",
      "doubleSided": true,
      "name": "blinn1SG",
      "pbrMetallicRoughness": {
        "baseColorFactor": [
          0.41,
          0.35,
          0.09,
          1.0
        ],
        "metallicFactor": 0.0,
        "roughnessFactor": 0.9699476628648295
      }
    },
    {
      "alphaMode": "OPAQUE",
      "doubleSided": true,
      "name": "blinn2SG",
      "pbrMetallicRoughness": {
        "baseColorFactor": [
          0.45,
          0.14,
          0.08,
          1.0
        ],
        "metallicFactor": 0.0,
        "roughnessFactor": 0.9699476628648295
      }
    }
  ],
  "meshes": [
    {
      "name": "buffer-0-mesh-0",
      "primitives": [
        {
          "attributes": {
            "POSITION": 1,
            "NORMAL": 2,
            "TEXCOORD_0": 3
          },
          "indices": 0,
          "material": 0,
          "mode": 4
        },
        {
          "attributes": {
            "POSITION": 6,
            "NORMAL": 7,
            "TEXCOORD_0": 8
          },
          "indices": 5,
          "material": 1,
          "mode": 4
        }
      ]
    }
  ],
  "nodes": [
    {
      "mesh": 0,
      "name": "node-0"
    }
  ],
  "scenes": [
    {
      "name": "scene-0",
      "nodes": [
        0
      ]
    }
  ]
}